<svg width="68" height="67" viewBox="0 0 68 67" fill="none" xmlns="http://www.w3.org/2000/svg">
<g id="camera">
<path id="Vector" fill-rule="evenodd" clip-rule="evenodd" d="M23.5229 12.589C24.593 11.3415 26.1526 10.4688 27.9805 10.4688H40.0195C41.8474 10.4688 43.407 11.3415 44.4771 12.589C44.5429 12.6657 44.6031 12.7471 44.6572 12.8325L48.0484 18.1907C48.4754 18.6434 48.9645 18.8438 49.3105 18.8438H57.0312C58.6971 18.8438 60.2948 19.5055 61.4728 20.6835C62.6507 21.8614 63.3125 23.4591 63.3125 25.125V50.25C63.3125 51.9159 62.6507 53.5136 61.4728 54.6915C60.2948 55.8695 58.6971 56.5312 57.0312 56.5312H10.9688C9.30286 56.5312 7.7052 55.8695 6.52724 54.6915C5.34927 53.5135 4.6875 51.9159 4.6875 50.25V25.125C4.6875 23.4591 5.34927 21.8614 6.52724 20.6835C7.7052 19.5055 9.30286 18.8438 10.9688 18.8438H11.4922V17.7969C11.4922 16.6405 12.4296 15.7031 13.5859 15.7031H16.7266C17.8829 15.7031 18.8203 16.6405 18.8203 17.7969V18.8438C19.0956 18.8438 19.4797 18.707 19.9485 18.1957L23.3428 12.8325C23.3969 12.7471 23.4571 12.6657 23.5229 12.589ZM26.7878 15.2196L23.3977 20.5759C23.344 20.6608 23.2842 20.7418 23.2188 20.8182C22.2601 21.9374 20.7836 23.0312 18.8203 23.0312H10.9688C10.4135 23.0312 9.8809 23.2518 9.48825 23.6445C9.09559 24.0372 8.875 24.5697 8.875 25.125V50.25C8.875 50.8053 9.09559 51.3378 9.48825 51.7305C9.8809 52.1232 10.4135 52.3438 10.9688 52.3438H57.0312C57.5865 52.3438 58.1191 52.1232 58.5118 51.7305C58.9044 51.3378 59.125 50.8053 59.125 50.25V25.125C59.125 24.5697 58.9044 24.0372 58.5118 23.6445C58.1191 23.2518 57.5865 23.0312 57.0312 23.0312H49.3105C47.4164 23.0312 45.8033 22.0115 44.7812 20.8182C44.7158 20.7418 44.656 20.6608 44.6023 20.5759L41.2122 15.2196C40.8358 14.8243 40.417 14.6562 40.0195 14.6562H27.9805C27.583 14.6562 27.1642 14.8243 26.7878 15.2196ZM34 27.2188C29.3746 27.2188 25.625 30.9684 25.625 35.5938C25.625 40.2191 29.3746 43.9688 34 43.9688C38.6254 43.9688 42.375 40.2191 42.375 35.5938C42.375 30.9684 38.6254 27.2188 34 27.2188ZM21.4375 35.5938C21.4375 28.6557 27.0619 23.0312 34 23.0312C40.9381 23.0312 46.5625 28.6557 46.5625 35.5938C46.5625 42.5318 40.9381 48.1562 34 48.1562C27.0619 48.1562 21.4375 42.5318 21.4375 35.5938Z" fill="#CCCCCC"/>
</g>
</svg>
