<svg width="50" height="50" viewBox="0 0 50 50" fill="none" xmlns="http://www.w3.org/2000/svg">
<g id="chatbox-ellipses">
<g id="Vector">
<path fill-rule="evenodd" clip-rule="evenodd" d="M10.4488 5.09376L10.4531 5.09375H39.5469V6.625L39.5512 5.09376C41.376 5.09895 43.1245 5.82613 44.4148 7.11643C45.7051 8.40673 46.4323 10.1553 46.4375 11.98L46.4375 11.9844V30.3594L46.4375 30.3637C46.4323 32.1885 45.7051 33.937 44.4148 35.2273C43.1245 36.5176 41.376 37.2448 39.5512 37.25L39.5469 37.25H24.0187L15.2618 44.5511C14.8054 44.9316 14.1701 45.0137 13.6319 44.7618C13.0938 44.5098 12.75 43.9692 12.75 43.375V37.25H10.4531L10.4488 37.25C8.62401 37.2448 6.87548 36.5176 5.58518 35.2273C4.29488 33.937 3.5677 32.1885 3.56251 30.3637L3.5625 30.3594V11.9844L3.56251 11.98C3.5677 10.1553 4.29488 8.40673 5.58518 7.11643C6.87548 5.82613 8.62402 5.09895 10.4488 5.09376ZM24.2322 37.072C24.2318 37.0723 24.2315 37.0726 24.2311 37.0728L24.2322 37.072ZM39.5445 8.15625H10.4555C9.44065 8.15966 8.46833 8.56431 7.75069 9.28194C7.03306 9.99958 6.62841 10.9719 6.625 11.9867V30.357C6.62841 31.3718 7.03306 32.3442 7.75069 33.0618C8.46836 33.7795 9.44072 34.1841 10.4556 34.1875H14.2812C15.1269 34.1875 15.8125 34.8731 15.8125 35.7188V40.1046L22.2689 34.7215C22.2693 34.7212 22.2696 34.7209 22.27 34.7207C22.6829 34.3761 23.2037 34.1875 23.7415 34.1875H39.5444C40.5593 34.1841 41.5316 33.7795 42.2493 33.0618C42.967 32.3441 43.3716 31.3718 43.375 30.3569V11.9868C43.3716 10.972 42.967 9.99961 42.2493 9.28194C41.5317 8.56431 40.5593 8.15966 39.5445 8.15625Z" fill="#FA541C"/>
<path d="M15.8125 24.2344C17.5039 24.2344 18.875 22.8632 18.875 21.1719C18.875 19.4805 17.5039 18.1094 15.8125 18.1094C14.1211 18.1094 12.75 19.4805 12.75 21.1719C12.75 22.8632 14.1211 24.2344 15.8125 24.2344Z" fill="#FA541C"/>
<path d="M25 24.2344C26.6914 24.2344 28.0625 22.8632 28.0625 21.1719C28.0625 19.4805 26.6914 18.1094 25 18.1094C23.3086 18.1094 21.9375 19.4805 21.9375 21.1719C21.9375 22.8632 23.3086 24.2344 25 24.2344Z" fill="#FA541C"/>
<path d="M34.1875 24.2344C35.8789 24.2344 37.25 22.8632 37.25 21.1719C37.25 19.4805 35.8789 18.1094 34.1875 18.1094C32.4961 18.1094 31.125 19.4805 31.125 21.1719C31.125 22.8632 32.4961 24.2344 34.1875 24.2344Z" fill="#FA541C"/>
</g>
</g>
</svg>
