<svg width="17" height="16" viewBox="0 0 17 16" fill="none" xmlns="http://www.w3.org/2000/svg">
<g id="checkmark-circle">
<g id="Vector">
<path fill-rule="evenodd" clip-rule="evenodd" d="M2 8C2 4.41136 4.91136 1.5 8.5 1.5C12.0886 1.5 15 4.41136 15 8C15 11.5886 12.0886 14.5 8.5 14.5C4.91136 14.5 2 11.5886 2 8ZM8.5 2.5C5.46364 2.5 3 4.96364 3 8C3 11.0364 5.46364 13.5 8.5 13.5C11.5364 13.5 14 11.0364 14 8C14 4.96364 11.5364 2.5 8.5 2.5Z" fill="#4EDE1B"/>
<path fill-rule="evenodd" clip-rule="evenodd" d="M11.8216 5.11715C12.033 5.29476 12.0605 5.61015 11.8829 5.8216L7.68285 10.8216C7.58977 10.9324 7.45324 10.9975 7.30854 10.9999C7.16384 11.0024 7.02517 10.9421 6.92835 10.8345L5.12835 8.83448C4.94362 8.62923 4.96026 8.31308 5.16552 8.12835C5.37077 7.94362 5.68692 7.96026 5.87165 8.16552L7.28699 9.73812L11.1171 5.1784C11.2948 4.96696 11.6102 4.93954 11.8216 5.11715Z" fill="#4EDE1B"/>
</g>
</g>
</svg>
