<svg width="32" height="32" viewBox="0 0 32 32" fill="none" xmlns="http://www.w3.org/2000/svg">
<path d="M16 28C15.6062 28 15.2187 27.8813 14.875 27.65C12.525 26.0562 9.1125 23.5875 6.6625 20.6C4.1625 17.5563 2.9625 14.425 3 11.0375C3.0375 7.15625 6.15625 4 9.94375 4C12.95 4 14.9437 5.84375 16 7.1875C17.0562 5.84375 19.05 4 22.0562 4C25.8437 4 28.9562 7.15625 29 11.0375C29.0312 14.425 27.8375 17.5563 25.3375 20.6C22.8875 23.5875 19.475 26.0562 17.125 27.65C16.7812 27.8875 16.3937 28 16 28ZM9.94375 6C7.25 6 5.03125 8.26875 5 11.0625C4.93125 17.6 10.525 22.2875 16 26C21.475 22.2812 27.0687 17.6 27 11.0625C26.9687 8.275 24.7562 6 22.0562 6C18.6812 6 16.9062 9.4125 16.8937 9.45C16.725 9.7875 16.3812 10 16 10C15.6187 10 15.275 9.7875 15.1062 9.44375C15.0875 9.4125 13.3125 6 9.94375 6Z" fill="#F5222D"/>
</svg>
