<svg width="24" height="24" viewBox="0 0 24 24" fill="none" xmlns="http://www.w3.org/2000/svg">
<path d="M12.0006 21C11.7053 21 11.4147 20.9109 11.1569 20.7375C9.39439 19.5422 6.83501 17.6906 4.99751 15.45C3.12251 13.1672 2.22251 10.8188 2.25064 8.27813C2.27876 5.36719 4.61783 3 7.45845 3C9.71314 3 11.2085 4.38281 12.0006 5.39062C12.7928 4.38281 14.2881 3 16.5428 3C19.3835 3 21.7178 5.36719 21.7506 8.27813C21.7741 10.8188 20.8788 13.1672 19.0038 15.45C17.1663 17.6906 14.6069 19.5422 12.8444 20.7375C12.5866 20.9156 12.296 21 12.0006 21ZM7.45845 4.5C5.43814 4.5 3.77408 6.20156 3.75064 8.29688C3.69908 13.2 7.89439 16.7156 12.0006 19.5C16.1069 16.7109 20.3022 13.2 20.2506 8.29688C20.2272 6.20625 18.5678 4.5 16.5428 4.5C14.0116 4.5 12.6803 7.05937 12.671 7.0875C12.5444 7.34062 12.2866 7.5 12.0006 7.5C11.7147 7.5 11.4569 7.34063 11.3303 7.08281C11.3163 7.05938 9.98501 4.5 7.45845 4.5Z" fill="white"/>
</svg>
