<svg width="24" height="24" viewBox="0 0 24 24" fill="none" xmlns="http://www.w3.org/2000/svg">
<path d="M11.9999 21C11.7046 21 11.414 20.9109 11.1562 20.7375C9.39366 19.5422 6.83428 17.6906 4.99678 15.45C3.12178 13.1672 2.22178 10.8188 2.24991 8.27813C2.27803 5.36719 4.61709 3 7.45772 3C9.71241 3 11.2077 4.38281 11.9999 5.39062C12.7921 4.38281 14.2874 3 16.5421 3C19.3827 3 21.7171 5.36719 21.7499 8.27813C21.7733 10.8188 20.878 13.1672 19.003 15.45C17.1655 17.6906 14.6062 19.5422 12.8437 20.7375C12.5858 20.9156 12.2952 21 11.9999 21ZM7.45772 4.5C5.43741 4.5 3.77334 6.20156 3.74991 8.29688C3.69834 13.2 7.89366 16.7156 11.9999 19.5C16.1062 16.7109 20.3015 13.2 20.2499 8.29688C20.2265 6.20625 18.5671 4.5 16.5421 4.5C14.0108 4.5 12.6796 7.05937 12.6702 7.0875C12.5437 7.34062 12.2858 7.5 11.9999 7.5C11.714 7.5 11.4562 7.34063 11.3296 7.08281C11.3155 7.05938 9.98428 4.5 7.45772 4.5Z" fill="#F84848"/>
</svg>
