<svg width="37" height="28" viewBox="0 0 37 28" fill="none" xmlns="http://www.w3.org/2000/svg">
<g id="_&#195;&#144;&#194;&#161;&#195;&#144;&#194;&#187;&#195;&#144;&#194;&#190;&#195;&#144;&#194;&#185;_1" clip-path="url(#clip0_3004_12466)">
<path id="Vector" d="M24.0447 26.6618C22.2948 27.207 20.4309 27.4993 18.4999 27.4993C16.2864 27.4993 14.1652 27.1155 12.198 26.4072C12.4009 26.3767 12.5875 26.348 12.7577 26.3211C13.0838 26.2691 15.2937 25.8907 18.1992 24.752C18.2989 24.8004 18.3985 24.847 18.4999 24.89C20.266 25.6898 22.1228 26.2906 24.0447 26.6618Z" fill="#312783"/>
<path id="Vector_2" d="M37 9.18498C37 17.3876 31.5531 24.3312 24.0447 26.6625C22.1228 26.2913 20.2661 25.6906 18.5 24.8907V24.6343C22.8565 22.8751 28.6403 19.4319 32.0458 12.9151C33.2304 10.6465 34.0202 8.21121 34.4405 5.70596C34.7267 3.99336 34.8408 2.24668 34.7901 0.5C35.6668 2.1068 36.308 3.85707 36.6667 5.70596C36.8859 6.83216 37 7.99602 37 9.18498Z" fill="url(#paint0_linear_3004_12466)"/>
<path id="Vector_3" d="M18.1993 24.7528C15.2938 25.8916 13.0839 26.2699 12.7578 26.3219C12.5875 26.3488 12.401 26.3775 12.1981 26.408C5.08465 23.8579 0 17.1097 0 9.18512C0 7.99616 0.114119 6.83231 0.333301 5.70611C0.655733 4.0491 1.20278 2.47099 1.94365 1.00586C2.02516 2.59114 2.25884 4.16566 2.6338 5.70611C4.61911 13.8908 10.5298 21.1752 18.1993 24.7528Z" fill="url(#paint1_linear_3004_12466)"/>
</g>
<defs>
<linearGradient id="paint0_linear_3004_12466" x1="18.5" y1="13.5804" x2="37" y2="13.5804" gradientUnits="userSpaceOnUse">
<stop stop-color="#00D08F"/>
<stop offset="0.12" stop-color="#00AB90"/>
<stop offset="0.26" stop-color="#008991"/>
<stop offset="0.4" stop-color="#006F92"/>
<stop offset="0.55" stop-color="#005C93"/>
<stop offset="0.7" stop-color="#005093"/>
<stop offset="0.86" stop-color="#004D94"/>
</linearGradient>
<linearGradient id="paint1_linear_3004_12466" x1="0" y1="13.706" x2="18.1993" y2="13.706" gradientUnits="userSpaceOnUse">
<stop stop-color="#00D08F"/>
<stop offset="0.12" stop-color="#00AB90"/>
<stop offset="0.26" stop-color="#008991"/>
<stop offset="0.4" stop-color="#006F92"/>
<stop offset="0.55" stop-color="#005C93"/>
<stop offset="0.7" stop-color="#005093"/>
<stop offset="0.86" stop-color="#004D94"/>
</linearGradient>
<clipPath id="clip0_3004_12466">
<rect width="37" height="27" fill="white" transform="translate(0 0.5)"/>
</clipPath>
</defs>
</svg>
