<svg width="32" height="32" viewBox="0 0 32 32" fill="none" xmlns="http://www.w3.org/2000/svg">
<path fill-rule="evenodd" clip-rule="evenodd" d="M3.02513 6.02513C3.6815 5.36875 4.57174 5 5.5 5H20C20.5523 5 21 5.44772 21 6C21 6.55228 20.5523 7 20 7H5.5C5.10218 7 4.72064 7.15804 4.43934 7.43934C4.15804 7.72064 4 8.10218 4 8.5V23.5C4 23.8978 4.15804 24.2794 4.43934 24.5607C4.72064 24.842 5.10218 25 5.5 25H26.4206C26.8185 25 27.2 24.842 27.4813 24.5607C27.7626 24.2794 27.9206 23.8978 27.9206 23.5V14.9375C27.9206 14.3852 28.3683 13.9375 28.9206 13.9375C29.4729 13.9375 29.9206 14.3852 29.9206 14.9375V23.5C29.9206 24.4283 29.5519 25.3185 28.8955 25.9749C28.2391 26.6313 27.3489 27 26.4206 27H5.5C4.57174 27 3.6815 26.6313 3.02513 25.9749C2.36875 25.3185 2 24.4283 2 23.5V8.5C2 7.57174 2.36875 6.6815 3.02513 6.02513Z" fill="#7389FC"/>
<path fill-rule="evenodd" clip-rule="evenodd" d="M6.21065 9.38606C6.54972 8.95011 7.17799 8.87158 7.61394 9.21065L16.0091 15.7402L20.835 12.0975C21.2758 11.7647 21.9029 11.8524 22.2356 12.2932C22.5684 12.734 22.4808 13.361 22.04 13.6938L16.6025 17.7981C16.2416 18.0705 15.7429 18.0669 15.3861 17.7894L6.38606 10.7894C5.95011 10.4503 5.87158 9.82201 6.21065 9.38606Z" fill="#7389FC"/>
<path d="M24.7795 11.3264C25.4368 11.7656 26.2095 12 27.0001 12C28.0598 11.9992 29.076 11.5778 29.8254 10.8284C30.5747 10.079 30.9961 9.06289 30.9969 8.0031C30.9969 7.2126 30.7625 6.43984 30.3233 5.78256C29.8841 5.12528 29.2599 4.61299 28.5296 4.31047C27.7993 4.00796 26.9956 3.92881 26.2203 4.08303C25.445 4.23725 24.7328 4.61791 24.1738 5.17688C23.6149 5.73586 23.2342 6.44803 23.08 7.22335C22.9258 7.99867 23.0049 8.80231 23.3074 9.53264C23.6099 10.263 24.1222 10.8872 24.7795 11.3264Z" fill="#7389FC"/>
</svg>
