<svg width="49" height="49" viewBox="0 0 49 49" fill="none" xmlns="http://www.w3.org/2000/svg">
<g id="mail">
<g id="Vector">
<path fill-rule="evenodd" clip-rule="evenodd" d="M8.42188 10.7188C7.15335 10.7188 6.125 11.7471 6.125 13.0156V35.9844C6.125 37.2529 7.15335 38.2812 8.42188 38.2812H40.5781C41.8467 38.2812 42.875 37.2529 42.875 35.9844V13.0156C42.875 11.7471 41.8467 10.7188 40.5781 10.7188H8.42188ZM3.0625 13.0156C3.0625 10.0557 5.46197 7.65625 8.42188 7.65625H40.5781C43.538 7.65625 45.9375 10.0557 45.9375 13.0156V35.9844C45.9375 38.9443 43.538 41.3438 40.5781 41.3438H8.42188C5.46197 41.3438 3.0625 38.9443 3.0625 35.9844V13.0156Z" fill="#FA541C"/>
<path fill-rule="evenodd" clip-rule="evenodd" d="M9.51006 14.3724C10.0293 13.7049 10.9913 13.5846 11.6588 14.1038L24.5 24.0914L37.3412 14.1038C38.0087 13.5846 38.9707 13.7049 39.4899 14.3724C40.0091 15.0399 39.8889 16.002 39.2213 16.5212L25.4401 27.2399C24.8871 27.67 24.1129 27.67 23.5599 27.2399L9.77865 16.5212C9.11111 16.002 8.99085 15.0399 9.51006 14.3724Z" fill="#FA541C"/>
</g>
</g>
</svg>
