<svg width="32" height="32" viewBox="0 0 32 32" fill="none" xmlns="http://www.w3.org/2000/svg">
<path fill-rule="evenodd" clip-rule="evenodd" d="M12.2982 5.03469C12.7454 3.53257 14.0572 2 16.0002 2C17.9437 2 19.2541 3.53263 19.7048 5.03191C19.707 5.03471 19.7101 5.03824 19.7139 5.0423C19.7232 5.05193 19.7337 5.06079 19.7435 5.06766C19.7511 5.07289 19.7556 5.07514 19.7561 5.07541C20.8872 5.54109 22.2184 6.28494 23.2597 7.64685C24.3093 9.01971 24.9921 10.9255 24.9921 13.5844C24.9921 16.2354 25.2717 17.6891 25.6836 18.6871C26.0447 19.5621 26.5196 20.1373 27.1954 20.9558C27.2941 21.0753 27.397 21.2 27.5046 21.3317L27.5048 21.332C28.7502 22.8575 27.5742 25 25.6558 25H21.0002C21.0002 26.3261 20.4734 27.5979 19.5357 28.5355C18.598 29.4732 17.3263 30 16.0002 30C14.6741 30 13.4023 29.4732 12.4646 28.5355C11.527 27.5979 11.0002 26.3261 11.0002 25H6.3508C4.43591 25 3.24008 22.8684 4.49579 21.3317C4.6034 21.2 4.70645 21.0751 4.80522 20.9555C5.48085 20.1372 5.95579 19.5619 6.31724 18.6868C6.72949 17.6888 7.00985 16.235 7.01142 13.5844M13.0002 25C13.0002 25.7956 13.3162 26.5587 13.8789 27.1213C14.4415 27.6839 15.2045 28 16.0002 28C16.7958 28 17.5589 27.6839 18.1215 27.1213C18.6841 26.5587 19.0002 25.7956 19.0002 25H13.0002ZM6.3508 23C6.14527 23 6.05274 22.9054 6.01558 22.8326C5.99417 22.7907 5.98776 22.7499 5.99084 22.7159C5.99356 22.6858 6.0047 22.6459 6.0445 22.5972L6.04456 22.5971C6.14115 22.4789 6.23845 22.3616 6.33586 22.2442C7.00619 21.4363 7.68179 20.6221 8.16576 19.4504C8.72208 18.1035 9.00983 16.3496 9.01143 13.585V13.5844C9.01143 11.2809 9.5945 9.82412 10.3316 8.8603C11.077 7.8857 12.0536 7.31817 13.0089 6.92476L13.0091 6.92467C13.5182 6.71523 14.0262 6.24864 14.2097 5.62348L14.2104 5.62099C14.495 4.64202 15.2303 4 16.0002 4C16.7701 4 17.5056 4.64155 17.7939 5.62253L17.7946 5.62507C17.977 6.23981 18.4796 6.71295 18.9945 6.9247C19.9477 7.31715 20.9248 7.88579 21.6708 8.86158C22.4086 9.82654 22.9921 11.2839 22.9921 13.5844C22.9921 16.349 23.2789 18.1031 23.8349 19.4501C24.3186 20.6221 24.9943 21.4364 25.6646 22.2444C25.762 22.3617 25.8593 22.4789 25.9558 22.5971C26.0184 22.674 26.0235 22.7537 25.9828 22.8338C25.9449 22.9086 25.8539 23 25.6558 23H6.3508ZM12.2982 5.03469C12.2964 5.03673 12.2943 5.03915 12.2917 5.04189C12.2831 5.05071 12.2731 5.05923 12.263 5.06615C12.2537 5.07257 12.2481 5.07508 12.2481 5.07508L12.2475 5.07533C11.116 5.54129 9.78426 6.28375 8.74296 7.64533C7.69343 9.01765 7.01152 10.9232 7.01143 13.5838" fill="#E39723"/>
</svg>
