<svg width="24" height="24" viewBox="0 0 24 24" fill="none" xmlns="http://www.w3.org/2000/svg">
<g id="pencil">
<g id="Vector">
<path fill-rule="evenodd" clip-rule="evenodd" d="M17.0682 5.12075C17.2673 5.12064 17.4582 5.19966 17.5989 5.34042L18.6593 6.40073C18.8 6.54148 18.879 6.73242 18.8789 6.93148C18.8788 7.13054 18.7996 7.32139 18.6587 7.46199L5.63865 20.4525C5.58338 20.5076 5.51984 20.5538 5.45032 20.5893L3.34141 21.6674C3.05179 21.8155 2.69973 21.76 2.46971 21.53C2.2397 21.3 2.18416 20.948 2.33219 20.6583L3.41032 18.5489C3.44587 18.4794 3.49206 18.4158 3.54722 18.3605L16.5377 5.34101C16.6783 5.2001 16.8691 5.12086 17.0682 5.12075Z" fill="black"/>
<path fill-rule="evenodd" clip-rule="evenodd" d="M19.1897 2.68899C19.471 2.4079 19.8524 2.25 20.25 2.25C20.6477 2.25 21.0291 2.4079 21.3103 2.68899L21.3107 2.68934C21.5918 2.97062 21.7497 3.352 21.7497 3.74965C21.7497 4.14731 21.5918 4.52869 21.3107 4.80996L20.2503 5.8708C20.1096 6.01153 19.9188 6.09059 19.7199 6.09059C19.5209 6.09059 19.3301 6.01153 19.1894 5.8708L18.1291 4.81002C17.8363 4.51711 17.8364 4.04233 18.1292 3.74948L19.1895 2.68917L19.1897 2.68899Z" fill="black"/>
</g>
</g>
</svg>
