<svg width="53" height="54" viewBox="0 0 53 54" fill="none" xmlns="http://www.w3.org/2000/svg">
<g id="person">
<g id="Vector">
<path d="M26.4998 27C21.0238 27 16.2 21.8553 15.7341 15.5305C15.4961 12.3215 16.4898 9.35059 18.5291 7.16641C20.5373 5.00293 23.3736 3.8125 26.4998 3.8125C29.6053 3.8125 32.4312 5.01328 34.4498 7.18711C36.4994 9.39199 37.4932 12.3525 37.2551 15.5305C36.7893 21.8553 31.9654 27 26.4998 27ZM26.4998 7.125C24.3052 7.125 22.3281 7.94277 20.9513 9.42305C19.5539 10.924 18.8707 13.015 19.0363 15.2924C19.3675 19.8471 22.7836 23.6979 26.4894 23.6979C30.1953 23.6979 33.6113 19.8471 33.9426 15.2924C34.1082 13.0461 33.425 10.9654 32.0068 9.44375C30.6404 7.94277 28.6736 7.125 26.4998 7.125Z" fill="current"/>
<path d="M44.7185 50.1873H8.28104C7.28729 50.1873 6.39706 49.7732 5.77596 49.0383C5.10311 48.2309 4.83397 47.1336 5.03065 46.026C5.90018 41.1814 8.633 37.1029 12.9185 34.2563C16.7279 31.7201 21.5517 30.3227 26.4998 30.3227C31.4478 30.3227 36.2717 31.7201 40.081 34.2563C44.3666 37.1133 47.0994 41.1814 47.9689 46.026C48.1656 47.1336 47.8965 48.2309 47.2236 49.0383C46.6025 49.7732 45.7123 50.1873 44.7185 50.1873ZM8.30175 46.8748H44.6978C44.7185 46.823 44.7289 46.7402 44.7082 46.6057C43.1037 37.693 34.1392 33.6248 26.4998 33.6248C18.8603 33.6248 9.89589 37.693 8.29139 46.6057C8.27069 46.7402 8.28104 46.823 8.30175 46.8748Z" fill="current"/>
</g>
</g>
</svg>
