<svg width="24" height="24" viewBox="0 0 24 24" fill="none" xmlns="http://www.w3.org/2000/svg">
<g id="power">
<g id="Vector">
<path fill-rule="evenodd" clip-rule="evenodd" d="M17.139 4.58678C17.4017 4.26656 17.8743 4.21995 18.1945 4.48268C19.3062 5.39479 20.2017 6.54214 20.8166 7.84206C21.4314 9.14198 21.7502 10.5621 21.75 12.0001C21.75 17.3831 17.383 21.75 12 21.75C6.61745 21.75 2.25065 17.3836 2.25004 12.0011C2.24594 10.5682 2.55772 9.15205 3.16319 7.85335C3.76882 6.55432 4.6534 5.40479 5.75395 4.48661C6.07201 4.22125 6.54495 4.26398 6.81031 4.58203C7.07566 4.90009 7.03294 5.37304 6.71488 5.63839C5.78365 6.41532 5.03515 7.388 4.5227 8.48718C4.01024 9.58636 3.74643 10.785 3.75004 11.9978L3.75004 12C3.75004 16.5545 7.4455 20.25 12 20.25C16.5546 20.25 20.25 16.5545 20.25 12V11.9999C20.2502 10.7838 19.9806 9.58277 19.4606 8.4834C18.9406 7.38404 18.1833 6.4137 17.2431 5.64232C16.9228 5.37959 16.8762 4.90701 17.139 4.58678Z" fill="#B81010"/>
<path fill-rule="evenodd" clip-rule="evenodd" d="M12 2.25C12.4143 2.25 12.75 2.58579 12.75 3V12C12.75 12.4142 12.4143 12.75 12 12.75C11.5858 12.75 11.25 12.4142 11.25 12V3C11.25 2.58579 11.5858 2.25 12 2.25Z" fill="#B81010"/>
</g>
</g>
</svg>
