<svg width="29" height="16" viewBox="0 0 29 16" fill="none" xmlns="http://www.w3.org/2000/svg">
<g id="&#240;&#159;&#166;&#134; icon &#34;strong wind&#34;">
<path id="Vector" d="M0 9.77227C0 10.0647 0.109664 10.3206 0.341177 10.5277C0.536135 10.7592 0.792017 10.8689 1.10882 10.8689H19.0084C19.3618 10.8689 19.6542 10.9908 19.8979 11.2345C20.1416 11.4782 20.2634 11.7828 20.2634 12.1361C20.2634 12.4895 20.1416 12.7819 19.8979 13.0134C19.6542 13.245 19.3618 13.3668 18.9962 13.3668C18.6429 13.3668 18.3382 13.245 18.1067 13.0134C17.9118 12.7941 17.6681 12.6966 17.3756 12.6966C17.071 12.6966 16.8151 12.8063 16.5958 13.0134C16.3765 13.2206 16.2668 13.4765 16.2668 13.7567C16.2668 14.0613 16.3765 14.3172 16.608 14.5244C17.2903 15.1945 18.0945 15.5357 18.9962 15.5357C19.9466 15.5357 20.763 15.2067 21.4454 14.5487C22.1277 13.8908 22.4567 13.0987 22.4567 12.1483C22.4567 11.1979 22.1155 10.3937 21.4332 9.71135C20.7508 9.02899 19.9345 8.68782 18.9962 8.68782H1.10882C0.804202 8.68782 0.548319 8.79748 0.328992 9.00462C0.109664 9.21177 0 9.46765 0 9.77227ZM0 5.77563C0 6.05588 0.109664 6.29958 0.341177 6.51891C0.54832 6.73824 0.804202 6.83572 1.10882 6.83572H25.5273C26.4777 6.83572 27.2941 6.50672 27.9765 5.83656C28.6588 5.17857 29 4.37437 29 3.43614C29 2.4979 28.6588 1.68151 27.9765 1.01134C27.2941 0.341176 26.4777 0 25.5273 0C24.5891 0 23.7971 0.328992 23.1513 0.97479C22.9319 1.16975 22.8223 1.43782 22.8223 1.79118C22.8223 2.10798 22.9319 2.36387 23.1391 2.55882C23.3462 2.75378 23.6021 2.85126 23.9067 2.85126C24.1992 2.85126 24.455 2.75378 24.6744 2.55882C24.9059 2.30294 25.1861 2.18109 25.5273 2.18109C25.8807 2.18109 26.1731 2.30294 26.4168 2.54664C26.6605 2.79034 26.7824 3.08277 26.7824 3.43614C26.7824 3.7895 26.6605 4.08193 26.4168 4.31345C26.1731 4.54496 25.8807 4.66681 25.5273 4.66681H1.10882C0.804202 4.66681 0.548319 4.77647 0.328992 4.98361C0.109664 5.21513 0 5.47101 0 5.77563Z" fill="#58DFFD"/>
</g>
</svg>
